<svg width="45" height="45" viewBox="0 0 45 45" fill="none" xmlns="http://www.w3.org/2000/svg">
<path d="M20.3905 4.21875C19.0851 4.21875 17.8332 4.7373 16.9102 5.66033C15.9871 6.58336 15.4686 7.83526 15.4686 9.14062C15.4686 14.0625 23.9061 18.2812 23.9061 18.2812C23.9061 18.2812 32.3436 14.0625 32.3436 9.14062C32.3436 7.83526 31.825 6.58336 30.902 5.66033C29.979 4.7373 28.7271 4.21875 27.4217 4.21875C26.0422 4.21875 24.7991 4.79109 23.9061 5.70516C23.4493 5.23483 22.9028 4.86094 22.2989 4.60562C21.6951 4.35031 21.0461 4.21875 20.3905 4.21875ZM20.3905 7.03125C20.9586 7.03125 21.493 7.25625 21.8952 7.66828L22.6461 8.4375H25.1661L25.917 7.66828C26.1121 7.46641 26.3459 7.30594 26.6045 7.19649C26.863 7.08703 27.141 7.03083 27.4217 7.03125C28.5847 7.03125 29.5311 7.97766 29.5311 9.14062C29.5311 10.9139 26.5695 13.4663 23.9061 15.068C21.2412 13.4648 18.2811 10.9139 18.2811 9.14062C18.2811 7.97766 19.2275 7.03125 20.3905 7.03125ZM27.0266 19.658L24.7245 21.2723L28.3948 26.5078L23.3295 30.015L19.7534 28.163L23.5503 26.2519L23.5644 26.2406L23.5784 26.2322C24.2494 25.8357 24.7701 25.2279 25.0589 24.504C25.3477 23.7801 25.3884 22.9809 25.1745 22.2314V22.2286C24.9106 21.3374 24.3064 20.5859 23.4927 20.1367C22.679 19.6875 21.7212 19.5766 20.8264 19.8281H20.8236L10.8223 22.6153L4.20312 27.1631L6.86797 38.0208L13.9625 35.4586L24.0116 40.6617L40.7038 29.1052L39.1048 26.7933L23.8034 37.3866L14.165 32.3944L8.85219 34.3125L7.39953 28.3838L12.0303 25.1972L21.5956 22.5295H21.6012C21.69 22.5007 21.7838 22.4904 21.8767 22.4992C21.9696 22.5081 22.0597 22.5359 22.1415 22.581C22.2232 22.6261 22.2948 22.6874 22.3518 22.7613C22.4089 22.8352 22.4502 22.92 22.4731 23.0105C22.5171 23.1592 22.5098 23.3184 22.4524 23.4625C22.395 23.6066 22.2909 23.7272 22.1567 23.805L16.0283 26.8889L13.5673 28.125L23.5405 33.2916L32.3211 27.2109L27.0266 19.658Z" fill="#1A8FE3"/>
</svg>
