<svg width="33" height="40" viewBox="0 0 33 40" fill="none" xmlns="http://www.w3.org/2000/svg">
<path d="M31.0913 16.7273C31.0913 28.1818 16.364 38 16.364 38C16.364 38 1.63672 28.1818 1.63672 16.7273C1.63672 12.8214 3.18834 9.07542 5.95024 6.31352C8.71214 3.55162 12.4581 2 16.364 2C20.2699 2 24.0158 3.55162 26.7777 6.31352C29.5396 9.07542 31.0913 12.8214 31.0913 16.7273Z" stroke="#1A8FE3" stroke-width="2.6" stroke-linecap="round" stroke-linejoin="round"/>
<path d="M16.3642 21.6365C19.0754 21.6365 21.2733 19.4387 21.2733 16.7275C21.2733 14.0162 19.0754 11.8184 16.3642 11.8184C13.653 11.8184 11.4551 14.0162 11.4551 16.7275C11.4551 19.4387 13.653 21.6365 16.3642 21.6365Z" stroke="#1A8FE3" stroke-width="2.6" stroke-linecap="round" stroke-linejoin="round"/>
</svg>
