<svg width="64" height="47" viewBox="0 0 64 47" fill="none" xmlns="http://www.w3.org/2000/svg">
<path d="M0.848 21V0.139998H5.188V9.156H13.308V0.139998H17.648V21H13.308V12.936H5.188V21H0.848ZM26.6758 21V0.139998H31.0158V17.22H39.8358V21H26.6758ZM55.3294 21.336C53.6868 21.336 52.2214 20.9907 50.9334 20.3C49.6454 19.6093 48.6281 18.6667 47.8814 17.472C47.1534 16.2587 46.7894 14.8867 46.7894 13.356V0.139998H51.1294V13.076C51.1294 13.8973 51.3068 14.644 51.6614 15.316C52.0348 15.9693 52.5388 16.4827 53.1734 16.856C53.8081 17.2293 54.5268 17.416 55.3294 17.416C56.1508 17.416 56.8694 17.2293 57.4854 16.856C58.1201 16.4827 58.6148 15.9693 58.9694 15.316C59.3428 14.644 59.5294 13.8973 59.5294 13.076V0.139998H63.8694V13.356C63.8694 14.8867 63.4961 16.2587 62.7494 17.472C62.0214 18.6667 61.0134 19.6093 59.7254 20.3C58.4374 20.9907 56.9721 21.336 55.3294 21.336ZM0.848 47V26.14H7.652C9.91067 26.14 11.8707 26.588 13.532 27.484C15.1933 28.38 16.4813 29.612 17.396 31.18C18.3107 32.748 18.768 34.54 18.768 36.556C18.768 38.572 18.3107 40.3733 17.396 41.96C16.4813 43.528 15.1933 44.76 13.532 45.656C11.8707 46.552 9.91067 47 7.652 47H0.848ZM5.188 43.22H7.764C9.12667 43.22 10.3027 42.9493 11.292 42.408C12.2813 41.848 13.0467 41.0733 13.588 40.084C14.148 39.076 14.428 37.9 14.428 36.556C14.428 35.1933 14.148 34.0173 13.588 33.028C13.0467 32.0387 12.2813 31.2733 11.292 30.732C10.3027 30.1907 9.12667 29.92 7.764 29.92H5.188V43.22ZM21.9596 47L29.0156 26.14H34.7836L41.8396 47H37.1076L35.7076 42.744H28.0636L26.6636 47H21.9596ZM29.2676 38.964H34.5036L31.3116 29.108H32.4876L29.2676 38.964ZM46.8074 47V26.14H50.1394L61.3394 40.896L59.5474 41.316V26.14H63.8874V47H60.5274L49.5234 32.132L51.1474 31.712V47H46.8074Z" fill="#1A8FE3"/>
<path d="M0.848 21H-0.152V22H0.848V21ZM0.848 0.139998V-0.860002H-0.152V0.139998H0.848ZM5.188 0.139998H6.188V-0.860002H5.188V0.139998ZM5.188 9.156H4.188V10.156H5.188V9.156ZM13.308 9.156V10.156H14.308V9.156H13.308ZM13.308 0.139998V-0.860002H12.308V0.139998H13.308ZM17.648 0.139998H18.648V-0.860002H17.648V0.139998ZM17.648 21V22H18.648V21H17.648ZM13.308 21H12.308V22H13.308V21ZM13.308 12.936H14.308V11.936H13.308V12.936ZM5.188 12.936V11.936H4.188V12.936H5.188ZM5.188 21V22H6.188V21H5.188ZM1.848 21V0.139998H-0.152V21H1.848ZM0.848 1.14H5.188V-0.860002H0.848V1.14ZM4.188 0.139998V9.156H6.188V0.139998H4.188ZM5.188 10.156H13.308V8.156H5.188V10.156ZM14.308 9.156V0.139998H12.308V9.156H14.308ZM13.308 1.14H17.648V-0.860002H13.308V1.14ZM16.648 0.139998V21H18.648V0.139998H16.648ZM17.648 20H13.308V22H17.648V20ZM14.308 21V12.936H12.308V21H14.308ZM13.308 11.936H5.188V13.936H13.308V11.936ZM4.188 12.936V21H6.188V12.936H4.188ZM5.188 20H0.848V22H5.188V20ZM26.6758 21H25.6758V22H26.6758V21ZM26.6758 0.139998V-0.860002H25.6758V0.139998H26.6758ZM31.0158 0.139998H32.0158V-0.860002H31.0158V0.139998ZM31.0158 17.22H30.0158V18.22H31.0158V17.22ZM39.8358 17.22H40.8358V16.22H39.8358V17.22ZM39.8358 21V22H40.8358V21H39.8358ZM27.6758 21V0.139998H25.6758V21H27.6758ZM26.6758 1.14H31.0158V-0.860002H26.6758V1.14ZM30.0158 0.139998V17.22H32.0158V0.139998H30.0158ZM31.0158 18.22H39.8358V16.22H31.0158V18.22ZM38.8358 17.22V21H40.8358V17.22H38.8358ZM39.8358 20H26.6758V22H39.8358V20ZM50.9334 20.3L50.4609 21.1813L50.9334 20.3ZM47.8814 17.472L47.0239 17.9865L47.0286 17.9943L47.0334 18.002L47.8814 17.472ZM46.7894 0.139998V-0.860002H45.7894V0.139998H46.7894ZM51.1294 0.139998H52.1294V-0.860002H51.1294V0.139998ZM51.6614 15.316L50.7771 15.7828L50.7849 15.7976L50.7932 15.8121L51.6614 15.316ZM53.1734 16.856L53.6805 15.9941L53.1734 16.856ZM57.4854 16.856L56.9784 15.994L56.9671 16.0008L57.4854 16.856ZM58.9694 15.316L58.0952 14.8303L58.0906 14.8389L58.9694 15.316ZM59.5294 0.139998V-0.860002H58.5294V0.139998H59.5294ZM63.8694 0.139998H64.8694V-0.860002H63.8694V0.139998ZM62.7494 17.472L61.8978 16.9479L61.8955 16.9516L62.7494 17.472ZM59.7254 20.3L60.198 21.1813L59.7254 20.3ZM55.3294 20.336C53.8309 20.336 52.5314 20.0222 51.406 19.4187L50.4609 21.1813C51.9114 21.9591 53.5426 22.336 55.3294 22.336V20.336ZM51.406 19.4187C50.2656 18.8072 49.3802 17.9832 48.7294 16.942L47.0334 18.002C47.876 19.3501 49.0252 20.4115 50.4609 21.1813L51.406 19.4187ZM48.7389 16.9575C48.1118 15.9122 47.7894 14.7208 47.7894 13.356H45.7894C45.7894 15.0526 46.1951 16.6051 47.0239 17.9865L48.7389 16.9575ZM47.7894 13.356V0.139998H45.7894V13.356H47.7894ZM46.7894 1.14H51.1294V-0.860002H46.7894V1.14ZM50.1294 0.139998V13.076H52.1294V0.139998H50.1294ZM50.1294 13.076C50.1294 14.0465 50.3404 14.9554 50.7771 15.7828L52.5458 14.8492C52.2731 14.3326 52.1294 13.7481 52.1294 13.076H50.1294ZM50.7932 15.8121C51.251 16.6133 51.8781 17.2542 52.6664 17.7179L53.6805 15.9941C53.1994 15.7111 52.8185 15.3253 52.5297 14.8199L50.7932 15.8121ZM52.6664 17.7179C53.4684 18.1897 54.365 18.416 55.3294 18.416V16.416C54.6885 16.416 54.1478 16.269 53.6805 15.9941L52.6664 17.7179ZM55.3294 18.416C56.3074 18.416 57.2105 18.192 58.0037 17.7112L56.9671 16.0008C56.5284 16.2667 55.9942 16.416 55.3294 16.416V18.416ZM57.9925 17.7179C58.7853 17.2516 59.4078 16.6045 59.8483 15.7931L58.0906 14.8389C57.8217 15.3342 57.4549 15.7138 56.9784 15.9941L57.9925 17.7179ZM59.8436 15.8016C60.3051 14.9709 60.5294 14.0553 60.5294 13.076H58.5294C58.5294 13.7394 58.3804 14.3171 58.0953 14.8304L59.8436 15.8016ZM60.5294 13.076V0.139998H58.5294V13.076H60.5294ZM59.5294 1.14H63.8694V-0.860002H59.5294V1.14ZM62.8694 0.139998V13.356H64.8694V0.139998H62.8694ZM62.8694 13.356C62.8694 14.7159 62.5402 15.9039 61.8978 16.9479L63.6011 17.9961C64.452 16.6134 64.8694 15.0574 64.8694 13.356H62.8694ZM61.8955 16.9516C61.2644 17.9872 60.3912 18.8083 59.2529 19.4187L60.198 21.1813C61.6357 20.4104 62.7784 19.3461 63.6034 17.9924L61.8955 16.9516ZM59.2529 19.4187C58.1274 20.0222 56.8279 20.336 55.3294 20.336V22.336C57.1163 22.336 58.7474 21.9591 60.198 21.1813L59.2529 19.4187ZM0.848 47H-0.152V48H0.848V47ZM0.848 26.14V25.14H-0.152V26.14H0.848ZM13.532 27.484L13.0573 28.3642L13.532 27.484ZM17.396 31.18L16.5322 31.6839L17.396 31.18ZM17.396 41.96L18.2598 42.4639L18.2624 42.4594L17.396 41.96ZM13.532 45.656L14.0067 46.5362L13.532 45.656ZM5.188 43.22H4.188V44.22H5.188V43.22ZM11.292 42.408L11.772 43.2853L11.7783 43.2818L11.7846 43.2783L11.292 42.408ZM13.588 40.084L12.7138 39.5983L12.7107 39.604L13.588 40.084ZM13.588 33.028L12.7107 33.508L12.7142 33.5143L12.7177 33.5206L13.588 33.028ZM11.292 30.732L10.812 31.6093L11.292 30.732ZM5.188 29.92V28.92H4.188V29.92H5.188ZM1.848 47V26.14H-0.152V47H1.848ZM0.848 27.14H7.652V25.14H0.848V27.14ZM7.652 27.14C9.77741 27.14 11.568 27.5609 13.0573 28.3642L14.0067 26.6038C12.1734 25.6151 10.0439 25.14 7.652 25.14V27.14ZM13.0573 28.3642C14.5636 29.1765 15.714 30.2812 16.5322 31.6839L18.2598 30.6761C17.2487 28.9428 15.8231 27.5835 14.0067 26.6038L13.0573 28.3642ZM16.5322 31.6839C17.3481 33.0825 17.768 34.697 17.768 36.556H19.768C19.768 34.383 19.2733 32.4135 18.2598 30.6761L16.5322 31.6839ZM17.768 36.556C17.768 38.4148 17.3481 40.0408 16.5296 41.4606L18.2624 42.4594C19.2732 40.7059 19.768 38.7292 19.768 36.556H17.768ZM16.5322 41.4561C15.714 42.8588 14.5636 43.9635 13.0573 44.7758L14.0067 46.5362C15.8231 45.5565 17.2487 44.1972 18.2598 42.4639L16.5322 41.4561ZM13.0573 44.7758C11.568 45.5791 9.77741 46 7.652 46V48C10.0439 48 12.1734 47.5249 14.0067 46.5362L13.0573 44.7758ZM7.652 46H0.848V48H7.652V46ZM5.188 44.22H7.764V42.22H5.188V44.22ZM7.764 44.22C9.25968 44.22 10.6078 43.9223 11.772 43.2853L10.812 41.5307C9.99757 41.9764 8.99365 42.22 7.764 42.22V44.22ZM11.7846 43.2783C12.9346 42.6273 13.8338 41.7181 14.4653 40.564L12.7107 39.604C12.2595 40.4286 11.6281 41.0687 10.7994 41.5377L11.7846 43.2783ZM14.4622 40.5696C15.1174 39.3901 15.428 38.0416 15.428 36.556H13.428C13.428 37.7584 13.1786 38.7618 12.7138 39.5984L14.4622 40.5696ZM15.428 36.556C15.428 35.055 15.1187 33.7022 14.4583 32.5354L12.7177 33.5206C13.1773 34.3324 13.428 35.3317 13.428 36.556H15.428ZM14.4653 32.548C13.8322 31.391 12.929 30.4878 11.772 29.8547L10.812 31.6093C11.6337 32.0589 12.2611 32.6863 12.7107 33.508L14.4653 32.548ZM11.772 29.8547C10.6078 29.2177 9.25968 28.92 7.764 28.92V30.92C8.99365 30.92 9.99757 31.1636 10.812 31.6093L11.772 29.8547ZM7.764 28.92H5.188V30.92H7.764V28.92ZM4.188 29.92V43.22H6.188V29.92H4.188ZM21.9596 47L21.0123 46.6796L20.5656 48H21.9596V47ZM29.0156 26.14V25.14H28.2982L28.0683 25.8196L29.0156 26.14ZM34.7836 26.14L35.7308 25.8196L35.501 25.14H34.7836V26.14ZM41.8396 47V48H43.2335L42.7868 46.6796L41.8396 47ZM37.1076 47L36.1576 47.3125L36.3838 48H37.1076V47ZM35.7076 42.744L36.6575 42.4315L36.4313 41.744H35.7076V42.744ZM28.0636 42.744V41.744H27.3398L27.1136 42.4315L28.0636 42.744ZM26.6636 47V48H27.3873L27.6135 47.3125L26.6636 47ZM29.2676 38.964L28.317 38.6535L27.8888 39.964H29.2676V38.964ZM34.5036 38.964V39.964H35.8786L35.4549 38.6559L34.5036 38.964ZM31.3116 29.108V28.108H29.9366L30.3602 29.4161L31.3116 29.108ZM32.4876 29.108L33.4381 29.4185L33.8663 28.108H32.4876V29.108ZM22.9068 47.3204L29.9628 26.4604L28.0683 25.8196L21.0123 46.6796L22.9068 47.3204ZM29.0156 27.14H34.7836V25.14H29.0156V27.14ZM33.8363 26.4604L40.8923 47.3204L42.7868 46.6796L35.7308 25.8196L33.8363 26.4604ZM41.8396 46H37.1076V48H41.8396V46ZM38.0575 46.6875L36.6575 42.4315L34.7576 43.0565L36.1576 47.3125L38.0575 46.6875ZM35.7076 41.744H28.0636V43.744H35.7076V41.744ZM27.1136 42.4315L25.7136 46.6875L27.6135 47.3125L29.0135 43.0565L27.1136 42.4315ZM26.6636 46H21.9596V48H26.6636V46ZM29.2676 39.964H34.5036V37.964H29.2676V39.964ZM35.4549 38.6559L32.2629 28.7999L30.3602 29.4161L33.5522 39.2721L35.4549 38.6559ZM31.3116 30.108H32.4876V28.108H31.3116V30.108ZM31.537 28.7974L28.317 38.6535L30.2181 39.2746L33.4381 29.4185L31.537 28.7974ZM46.8074 47H45.8074V48H46.8074V47ZM46.8074 26.14V25.14H45.8074V26.14H46.8074ZM50.1394 26.14L50.9359 25.5354L50.6358 25.14H50.1394V26.14ZM61.3394 40.896L61.5676 41.8696L63.067 41.5182L62.1359 40.2914L61.3394 40.896ZM59.5474 41.316H58.5474V42.5775L59.7756 42.2896L59.5474 41.316ZM59.5474 26.14V25.14H58.5474V26.14H59.5474ZM63.8874 26.14H64.8874V25.14H63.8874V26.14ZM63.8874 47V48H64.8874V47H63.8874ZM60.5274 47L59.7236 47.5949L60.0234 48H60.5274V47ZM49.5234 32.132L49.273 31.1639L47.8375 31.5351L48.7196 32.7269L49.5234 32.132ZM51.1474 31.712H52.1474V30.4205L50.897 30.7439L51.1474 31.712ZM51.1474 47V48H52.1474V47H51.1474ZM47.8074 47V26.14H45.8074V47H47.8074ZM46.8074 27.14H50.1394V25.14H46.8074V27.14ZM49.3428 26.7446L60.5428 41.5006L62.1359 40.2914L50.9359 25.5354L49.3428 26.7446ZM61.1112 39.9224L59.3192 40.3424L59.7756 42.2896L61.5676 41.8696L61.1112 39.9224ZM60.5474 41.316V26.14H58.5474V41.316H60.5474ZM59.5474 27.14H63.8874V25.14H59.5474V27.14ZM62.8874 26.14V47H64.8874V26.14H62.8874ZM63.8874 46H60.5274V48H63.8874V46ZM61.3312 46.4051L50.3272 31.5371L48.7196 32.7269L59.7236 47.5949L61.3312 46.4051ZM49.7738 33.1001L51.3978 32.6801L50.897 30.7439L49.273 31.1639L49.7738 33.1001ZM50.1474 31.712V47H52.1474V31.712H50.1474ZM51.1474 46H46.8074V48H51.1474V46Z" fill="#1A8FE3"/>
</svg>
