<svg width="90" height="90" viewBox="0 0 90 90" fill="none" xmlns="http://www.w3.org/2000/svg">
<circle cx="45" cy="45" r="45" fill="#1A8FE3" fill-opacity="0.9"/>
<path d="M60.9854 32.9904C60.0329 32.0399 58.9012 31.2857 57.6551 30.7712C56.4089 30.2566 55.0729 29.9917 53.7236 29.9917C52.3743 29.9917 51.0383 30.2566 49.7922 30.7712C48.546 31.2857 47.4143 32.0399 46.4618 32.9904L45 34.463L43.5382 32.9904C42.5857 32.0399 41.454 31.2857 40.2078 30.7712C38.9617 30.2566 37.6257 29.9917 36.2764 29.9917C34.9271 29.9917 33.5911 30.2566 32.3449 30.7712C31.0988 31.2857 29.9671 32.0399 29.0146 32.9904C24.9898 36.993 24.743 43.7521 29.812 48.8875L45 63.9917L60.188 48.8875C65.257 43.7521 65.0102 36.993 60.9854 32.9904Z" stroke="#F8F8F8" stroke-width="3" stroke-linecap="round" stroke-linejoin="round"/>
<path d="M45 34.463L39.0577 40.3914C38.3064 41.1446 37.8849 42.1625 37.8849 43.2234C37.8849 44.2843 38.3064 45.3023 39.0577 46.0555V46.0555C39.8151 46.8026 40.8387 47.2218 41.9054 47.2218C42.9722 47.2218 43.9958 46.8026 44.7532 46.0555L49.0438 41.8829C50.1101 40.8337 51.5496 40.2452 53.0496 40.2452C54.5497 40.2452 55.9892 40.8337 57.0555 41.8829L61.6119 46.4142M56.391 52.6635L52.594 48.8875M50.6955 58.3276L46.8985 54.5516" stroke="#F8F8F8" stroke-width="3" stroke-linecap="round" stroke-linejoin="round"/>
</svg>
