<svg width="42" height="38" viewBox="0 0 42 38" fill="none" xmlns="http://www.w3.org/2000/svg">
<path d="M36.9854 4.9904C36.0329 4.03992 34.9012 3.28577 33.6551 2.77119C32.4089 2.25661 31.0729 1.99173 29.7236 1.99173C28.3743 1.99173 27.0383 2.25661 25.7922 2.77119C24.546 3.28577 23.4143 4.03992 22.4618 4.9904L21 6.46306L19.5382 4.9904C18.5857 4.03992 17.454 3.28577 16.2078 2.77119C14.9617 2.25661 13.6257 1.99173 12.2764 1.99173C10.9271 1.99173 9.59107 2.25661 8.34494 2.77119C7.0988 3.28577 5.96706 4.03992 5.01463 4.9904C0.989806 8.99301 0.743001 15.7521 5.812 20.8875L21 35.9917L36.188 20.8875C41.257 15.7521 41.0102 8.99301 36.9854 4.9904Z" stroke="#F8F8F8" stroke-width="3" stroke-linecap="round" stroke-linejoin="round"/>
<path d="M21 6.46305L15.0577 12.3914C14.3064 13.1447 13.8849 14.1626 13.8849 15.2235C13.8849 16.2844 14.3064 17.3023 15.0577 18.0555V18.0555C15.8151 18.8026 16.8387 19.2218 17.9054 19.2218C18.9722 19.2218 19.9958 18.8026 20.7532 18.0555L25.0438 13.883C26.1101 12.8338 27.5496 12.2453 29.0496 12.2453C30.5497 12.2453 31.9892 12.8338 33.0555 13.883L37.6119 18.4142M32.391 24.6636L28.594 20.8875M26.6955 30.3277L22.8985 26.5516" stroke="#F8F8F8" stroke-width="3" stroke-linecap="round" stroke-linejoin="round"/>
</svg>
