<svg width="84" height="65" viewBox="0 0 84 65" fill="none" xmlns="http://www.w3.org/2000/svg">
<path d="M1.84516 36.6982V15.8703H6.17848V24.8725H14.286V15.8703H18.6193V36.6982H14.286V28.6466H6.17848V36.6982H1.84516ZM27.6332 36.6982V15.8703H31.9666V32.9241H40.773V36.6982H27.6332ZM56.2428 37.0337C54.6026 37.0337 53.1396 36.6889 51.8535 35.9993C50.5675 35.3097 49.5517 34.3685 48.8062 33.1757C48.0793 31.9642 47.7159 30.5943 47.7159 29.066V15.8703H52.0492V28.7864C52.0492 29.6065 52.2263 30.352 52.5804 31.023C52.9532 31.6753 53.4564 32.1879 54.0901 32.5606C54.7238 32.9334 55.4413 33.1198 56.2428 33.1198C57.0628 33.1198 57.7804 32.9334 58.3955 32.5606C59.0291 32.1879 59.523 31.6753 59.8772 31.023C60.2499 30.352 60.4363 29.6065 60.4363 28.7864V15.8703H64.7696V29.066C64.7696 30.5943 64.3969 31.9642 63.6514 33.1757C62.9245 34.3685 61.918 35.3097 60.632 35.9993C59.346 36.6889 57.8829 37.0337 56.2428 37.0337ZM1.84516 62.6982V41.8703H8.63869C10.8939 41.8703 12.8509 42.3176 14.5096 43.2123C16.1684 44.1069 17.4544 45.337 18.3677 46.9026C19.281 48.4682 19.7376 50.2574 19.7376 52.2703C19.7376 54.2832 19.281 56.0818 18.3677 57.666C17.4544 59.2316 16.1684 60.4617 14.5096 61.3563C12.8509 62.2509 10.8939 62.6982 8.63869 62.6982H1.84516ZM6.17848 58.9241H8.75052C10.1111 58.9241 11.2853 58.6538 12.2731 58.1133C13.2609 57.5542 14.0251 56.7807 14.5656 55.7929C15.1247 54.7864 15.4043 53.6122 15.4043 52.2703C15.4043 50.9097 15.1247 49.7356 14.5656 48.7477C14.0251 47.7599 13.2609 46.9958 12.2731 46.4553C11.2853 45.9148 10.1111 45.6445 8.75052 45.6445H6.17848V58.9241ZM22.9242 62.6982L29.9694 41.8703H35.7285L42.7736 62.6982H38.0489L36.6511 58.4488H29.0188L27.621 62.6982H22.9242ZM30.221 54.6746H35.4489L32.2618 44.8338H33.436L30.221 54.6746ZM47.7338 62.6982V41.8703H51.0607L62.2435 56.6036L60.4542 57.023V41.8703H64.7875V62.6982H61.4327L50.4456 47.8531L52.0671 47.4338V62.6982H47.7338Z" fill="#1A8FE3"/>
<path d="M1.84516 36.6982H0.846695V37.6967H1.84516V36.6982ZM1.84516 15.8703V14.8719H0.846695V15.8703H1.84516ZM6.17848 15.8703H7.17694V14.8719H6.17848V15.8703ZM6.17848 24.8725H5.18002V25.8709H6.17848V24.8725ZM14.286 24.8725V25.8709H15.2844V24.8725H14.286ZM14.286 15.8703V14.8719H13.2875V15.8703H14.286ZM18.6193 15.8703H19.6178V14.8719H18.6193V15.8703ZM18.6193 36.6982V37.6967H19.6178V36.6982H18.6193ZM14.286 36.6982H13.2875V37.6967H14.286V36.6982ZM14.286 28.6466H15.2844V27.6482H14.286V28.6466ZM6.17848 28.6466V27.6482H5.18002V28.6466H6.17848ZM6.17848 36.6982V37.6967H7.17694V36.6982H6.17848ZM2.84362 36.6982V15.8703H0.846695V36.6982H2.84362ZM1.84516 16.8688H6.17848V14.8719H1.84516V16.8688ZM5.18002 15.8703V24.8725H7.17694V15.8703H5.18002ZM6.17848 25.8709H14.286V23.874H6.17848V25.8709ZM15.2844 24.8725V15.8703H13.2875V24.8725H15.2844ZM14.286 16.8688H18.6193V14.8719H14.286V16.8688ZM17.6208 15.8703V36.6982H19.6178V15.8703H17.6208ZM18.6193 35.6998H14.286V37.6967H18.6193V35.6998ZM15.2844 36.6982V28.6466H13.2875V36.6982H15.2844ZM14.286 27.6482H6.17848V29.6451H14.286V27.6482ZM5.18002 28.6466V36.6982H7.17694V28.6466H5.18002ZM6.17848 35.6998H1.84516V37.6967H6.17848V35.6998ZM27.6332 36.6982H26.6348V37.6967H27.6332V36.6982ZM27.6332 15.8703V14.8719H26.6348V15.8703H27.6332ZM31.9666 15.8703H32.965V14.8719H31.9666V15.8703ZM31.9666 32.9241H30.9681V33.9225H31.9666V32.9241ZM40.773 32.9241H41.7714V31.9256H40.773V32.9241ZM40.773 36.6982V37.6967H41.7714V36.6982H40.773ZM28.6317 36.6982V15.8703H26.6348V36.6982H28.6317ZM27.6332 16.8688H31.9666V14.8719H27.6332V16.8688ZM30.9681 15.8703V32.9241H32.965V15.8703H30.9681ZM31.9666 33.9225H40.773V31.9256H31.9666V33.9225ZM39.7745 32.9241V36.6982H41.7714V32.9241H39.7745ZM40.773 35.6998H27.6332V37.6967H40.773V35.6998ZM51.8535 35.9993L51.3817 36.8793L51.8535 35.9993ZM48.8062 33.1757L47.9501 33.6894L47.9547 33.6972L47.9595 33.7049L48.8062 33.1757ZM47.7159 15.8703V14.8719H46.7174V15.8703H47.7159ZM52.0492 15.8703H53.0477V14.8719H52.0492V15.8703ZM52.5804 31.023L51.6974 31.489L51.7052 31.5038L51.7135 31.5184L52.5804 31.023ZM54.0901 32.5606L54.5963 31.7L54.0901 32.5606ZM58.3955 32.5606L57.8892 31.6999L57.8779 31.7067L58.3955 32.5606ZM59.8772 31.023L59.0043 30.5381L58.9997 30.5466L59.8772 31.023ZM60.4363 15.8703V14.8719H59.4378V15.8703H60.4363ZM64.7696 15.8703H65.7681V14.8719H64.7696V15.8703ZM63.6514 33.1757L62.801 32.6524L62.7987 32.6561L63.6514 33.1757ZM60.632 35.9993L61.1039 36.8793L60.632 35.9993ZM56.2428 36.0353C54.7466 36.0353 53.4491 35.7219 52.3254 35.1194L51.3817 36.8793C52.83 37.6559 54.4587 38.0322 56.2428 38.0322V36.0353ZM52.3254 35.1194C51.1868 34.5088 50.3027 33.6861 49.6529 32.6465L47.9595 33.7049C48.8008 35.0509 49.9483 36.1106 51.3817 36.8793L52.3254 35.1194ZM49.6624 32.662C49.0362 31.6183 48.7144 30.4287 48.7144 29.066H46.7174C46.7174 30.76 47.1225 32.3101 47.9501 33.6894L49.6624 32.662ZM48.7144 29.066V15.8703H46.7174V29.066H48.7144ZM47.7159 16.8688H52.0492V14.8719H47.7159V16.8688ZM51.0508 15.8703V28.7864H53.0477V15.8703H51.0508ZM51.0508 28.7864C51.0508 29.7555 51.2614 30.663 51.6974 31.489L53.4634 30.5569C53.1912 30.0411 53.0477 29.4575 53.0477 28.7864H51.0508ZM51.7135 31.5184C52.1706 32.3183 52.7968 32.9582 53.5838 33.4212L54.5963 31.7C54.116 31.4175 53.7357 31.0323 53.4473 30.5276L51.7135 31.5184ZM53.5838 33.4212C54.3846 33.8923 55.2799 34.1182 56.2428 34.1182V32.1213C55.6028 32.1213 55.0629 31.9745 54.5963 31.7L53.5838 33.4212ZM56.2428 34.1182C57.2192 34.1182 58.1209 33.8945 58.913 33.4145L57.8779 31.7067C57.4399 31.9722 56.9065 32.1213 56.2428 32.1213V34.1182ZM58.9017 33.4212C59.6933 32.9556 60.3149 32.3095 60.7547 31.4993L58.9997 30.5466C58.7312 31.0411 58.365 31.4202 57.8892 31.7L58.9017 33.4212ZM60.75 31.5079C61.2108 30.6785 61.4348 29.7642 61.4348 28.7864H59.4378C59.4378 29.4488 59.2891 30.0256 59.0044 30.5381L60.75 31.5079ZM61.4348 28.7864V15.8703H59.4378V28.7864H61.4348ZM60.4363 16.8688H64.7696V14.8719H60.4363V16.8688ZM63.7712 15.8703V29.066H65.7681V15.8703H63.7712ZM63.7712 29.066C63.7712 30.4238 63.4425 31.61 62.801 32.6524L64.5017 33.699C65.3513 32.3184 65.7681 30.7648 65.7681 29.066H63.7712ZM62.7987 32.6561C62.1686 33.6901 61.2967 34.5099 60.1602 35.1194L61.1039 36.8793C62.5393 36.1095 63.6803 35.0469 64.504 33.6952L62.7987 32.6561ZM60.1602 35.1194C59.0365 35.7219 57.739 36.0353 56.2428 36.0353V38.0322C58.0268 38.0322 59.6555 37.6559 61.1039 36.8793L60.1602 35.1194ZM1.84516 62.6982H0.846695V63.6967H1.84516V62.6982ZM1.84516 41.8703V40.8719H0.846695V41.8703H1.84516ZM14.5096 43.2123L14.0357 44.0911H14.0357L14.5096 43.2123ZM18.3677 46.9026L17.5052 47.4057L18.3677 46.9026ZM18.3677 57.666L19.2302 58.1691L19.2327 58.1647L18.3677 57.666ZM14.5096 61.3563L14.9836 62.2351L14.5096 61.3563ZM6.17848 58.9241H5.18002V59.9225H6.17848V58.9241ZM12.2731 58.1133L12.7524 58.9892L12.7587 58.9858L12.7649 58.9822L12.2731 58.1133ZM14.5656 55.7929L13.6927 55.308L13.6896 55.3136L14.5656 55.7929ZM14.5656 48.7477L13.6896 49.227L13.6931 49.2333L13.6966 49.2396L14.5656 48.7477ZM12.2731 46.4553L11.7938 47.3312L12.2731 46.4553ZM6.17848 45.6445V44.6461H5.18002V45.6445H6.17848ZM2.84362 62.6982V41.8703H0.846695V62.6982H2.84362ZM1.84516 42.8688H8.63869V40.8719H1.84516V42.8688ZM8.63869 42.8688C10.7608 42.8688 12.5486 43.2891 14.0357 44.0911L14.9836 42.3335C13.1531 41.3462 11.0269 40.8719 8.63869 40.8719V42.8688ZM14.0357 44.0911C15.5396 44.9022 16.6883 46.0051 17.5052 47.4057L19.2301 46.3995C18.2206 44.6688 16.7972 43.3116 14.9836 42.3335L14.0357 44.0911ZM17.5052 47.4057C18.3198 48.8021 18.7391 50.4142 18.7391 52.2703H20.736C20.736 50.1007 20.2421 48.1342 19.2301 46.3995L17.5052 47.4057ZM18.7391 52.2703C18.7391 54.1263 18.3199 55.7497 17.5027 57.1673L19.2327 58.1647C20.242 56.4138 20.736 54.4401 20.736 52.2703H18.7391ZM17.5052 57.1629C16.6883 58.5634 15.5396 59.6664 14.0357 60.4775L14.9836 62.2351C16.7972 61.257 18.2206 59.8997 19.2301 58.1691L17.5052 57.1629ZM14.0357 60.4775C12.5486 61.2795 10.7608 61.6998 8.63869 61.6998V63.6967C11.0269 63.6967 13.1531 63.2223 14.9836 62.2351L14.0357 60.4775ZM8.63869 61.6998H1.84516V63.6967H8.63869V61.6998ZM6.17848 59.9225H8.75052V57.9256H6.17848V59.9225ZM8.75052 59.9225C10.2439 59.9225 11.5899 59.6253 12.7524 58.9892L11.7938 57.2374C10.9806 57.6823 9.97827 57.9256 8.75052 57.9256V59.9225ZM12.7649 58.9822C13.9132 58.3323 14.811 57.4245 15.4415 56.2722L13.6896 55.3136C13.2391 56.1369 12.6086 56.7761 11.7812 57.2444L12.7649 58.9822ZM15.4384 56.2778C16.0926 55.1001 16.4027 53.7536 16.4027 52.2703H14.4058C14.4058 53.4708 14.1568 54.4728 13.6927 55.308L15.4384 56.2778ZM16.4027 52.2703C16.4027 50.7716 16.0939 49.4209 15.4345 48.2559L13.6966 49.2396C14.1555 50.0502 14.4058 51.0479 14.4058 52.2703H16.4027ZM15.4415 48.2685C14.8094 47.1133 13.9076 46.2115 12.7524 45.5794L11.7938 47.3312C12.6142 47.7801 13.2407 48.4066 13.6896 49.227L15.4415 48.2685ZM12.7524 45.5794C11.5899 44.9433 10.2439 44.6461 8.75052 44.6461V46.643C9.97827 46.643 10.9806 46.8862 11.7938 47.3312L12.7524 45.5794ZM8.75052 44.6461H6.17848V46.643H8.75052V44.6461ZM5.18002 45.6445V58.9241H7.17694V45.6445H5.18002ZM22.9242 62.6982L21.9784 62.3783L21.5325 63.6967H22.9242V62.6982ZM29.9694 41.8703V40.8719H29.2531L29.0236 41.5504L29.9694 41.8703ZM35.7285 41.8703L36.6743 41.5504L36.4448 40.8719H35.7285V41.8703ZM42.7737 62.6982V63.6967H44.1654L43.7195 62.3783L42.7737 62.6982ZM38.0489 62.6982L37.1005 63.0102L37.3263 63.6967H38.0489V62.6982ZM36.6511 58.4488L37.5995 58.1368L37.3737 57.4503H36.6511V58.4488ZM29.0188 58.4488V57.4503H28.2962L28.0704 58.1368L29.0188 58.4488ZM27.621 62.6982V63.6967H28.3437L28.5695 63.0102L27.621 62.6982ZM30.221 54.6746L29.2719 54.3645L28.8444 55.6731H30.221V54.6746ZM35.4489 54.6746V55.6731H36.8218L36.3988 54.367L35.4489 54.6746ZM32.2618 44.8338V43.8353H30.889L31.312 45.1414L32.2618 44.8338ZM33.436 44.8338L34.3851 45.1438L34.8126 43.8353H33.436V44.8338ZM23.8701 63.0182L30.9152 42.1903L29.0236 41.5504L21.9784 62.3783L23.8701 63.0182ZM29.9694 42.8688H35.7285V40.8719H29.9694V42.8688ZM34.7827 42.1903L41.8278 63.0182L43.7195 62.3783L36.6743 41.5504L34.7827 42.1903ZM42.7737 61.6998H38.0489V63.6967H42.7737V61.6998ZM38.9974 62.3862L37.5995 58.1368L35.7026 58.7608L37.1005 63.0102L38.9974 62.3862ZM36.6511 57.4503H29.0188V59.4473H36.6511V57.4503ZM28.0704 58.1368L26.6725 62.3862L28.5695 63.0102L29.9673 58.7608L28.0704 58.1368ZM27.621 61.6998H22.9242V63.6967H27.621V61.6998ZM30.221 55.6731H35.4489V53.6761H30.221V55.6731ZM36.3988 54.367L33.2117 44.5261L31.312 45.1414L34.4991 54.9822L36.3988 54.367ZM32.2618 45.8322H33.436V43.8353H32.2618V45.8322ZM32.4869 44.5237L29.2719 54.3645L31.1701 54.9847L34.3851 45.1438L32.4869 44.5237ZM47.7338 62.6982H46.7354V63.6967H47.7338V62.6982ZM47.7338 41.8703V40.8719H46.7354V41.8703H47.7338ZM51.0607 41.8703L51.856 41.2667L51.5563 40.8719H51.0607V41.8703ZM62.2435 56.6036L62.4713 57.5758L63.9685 57.2249L63.0388 56L62.2435 56.6036ZM60.4542 57.023H59.4558V58.2825L60.6821 57.9951L60.4542 57.023ZM60.4542 41.8703V40.8719H59.4558V41.8703H60.4542ZM64.7875 41.8703H65.786V40.8719H64.7875V41.8703ZM64.7875 62.6982V63.6967H65.786V62.6982H64.7875ZM61.4327 62.6982L60.6301 63.2922L60.9295 63.6967H61.4327V62.6982ZM50.4456 47.8531L50.1956 46.8865L48.7624 47.2571L49.6431 48.4471L50.4456 47.8531ZM52.0671 47.4338H53.0656V46.1442L51.8171 46.4671L52.0671 47.4338ZM52.0671 62.6982V63.6967H53.0656V62.6982H52.0671ZM48.7323 62.6982V41.8703H46.7354V62.6982H48.7323ZM47.7338 42.8688H51.0607V40.8719H47.7338V42.8688ZM50.2654 42.474L61.4481 57.2073L63.0388 56L51.856 41.2667L50.2654 42.474ZM62.0156 55.6315L60.2264 56.0509L60.6821 57.9951L62.4713 57.5758L62.0156 55.6315ZM61.4527 57.023V41.8703H59.4558V57.023H61.4527ZM60.4542 42.8688H64.7875V40.8719H60.4542V42.8688ZM63.7891 41.8703V62.6982H65.786V41.8703H63.7891ZM64.7875 61.6998H61.4327V63.6967H64.7875V61.6998ZM62.2353 62.1043L51.2482 47.2591L49.6431 48.4471L60.6301 63.2922L62.2353 62.1043ZM50.6956 48.8198L52.3171 48.4004L51.8171 46.4671L50.1956 46.8865L50.6956 48.8198ZM51.0687 47.4338V62.6982H53.0656V47.4338H51.0687ZM52.0671 61.6998H47.7338V63.6967H52.0671V61.6998Z" fill="#1A8FE3"/>
<circle cx="76.8679" cy="7.15161" r="6.49811" stroke="#F24E1E" stroke-opacity="0.75" stroke-width="1.26792"/>
<path d="M75.314 9.18945V4.36804H78.6145V5.24172H76.3171V6.46487H78.291V7.33855H76.3171V9.18945H75.314Z" fill="white"/>
<path d="M75.314 9.18945V4.36804H78.6145V5.24172H76.3171V6.46487H78.291V7.33855H76.3171V9.18945H75.314Z" fill="#F24E1E" fill-opacity="0.75"/>
</svg>
