<svg width="28" height="27" viewBox="0 0 28 27" fill="none" xmlns="http://www.w3.org/2000/svg">
<path d="M20.5498 0H7.0498C3.32188 0 0.299805 3.02208 0.299805 6.75V20.25C0.299805 23.9779 3.32188 27 7.0498 27H20.5498C24.2777 27 27.2998 23.9779 27.2998 20.25V6.75C27.2998 3.02208 24.2777 0 20.5498 0Z" fill="#1A8FE3" fill-opacity="0.9"/>
<path d="M19.1996 12.6499C19.3662 13.7734 19.1743 14.9209 18.6512 15.9291C18.1281 16.9373 17.3004 17.7548 16.2858 18.2655C15.2712 18.7761 14.1215 18.9539 13.0001 18.7734C11.8787 18.593 10.8428 18.0635 10.0396 17.2604C9.23649 16.4572 8.70704 15.4213 8.5266 14.2999C8.34615 13.1785 8.52389 12.0288 9.03455 11.0142C9.5452 9.99966 10.3628 9.17196 11.3709 8.64883C12.3791 8.12571 13.5266 7.9338 14.6501 8.10041C15.7962 8.27035 16.8572 8.80438 17.6764 9.62362C18.4956 10.4429 19.0297 11.5039 19.1996 12.6499Z" fill="white"/>
<path d="M21.2246 6.0752H21.2376" stroke="white" stroke-width="2.7" stroke-linecap="round" stroke-linejoin="round"/>
</svg>
