<svg width="116" height="86" viewBox="0 0 116 86" fill="none" xmlns="http://www.w3.org/2000/svg">
<path d="M0.376154 39V0.890381H8.305V17.3619H23.1396V0.890381H31.0685V39H23.1396V24.2677H8.305V39H0.376154ZM42.9577 39V0.890381H50.8866V32.0942H67V39H42.9577ZM90.1903 39.6138C87.1893 39.6138 84.5122 38.9829 82.1592 37.7212C79.8061 36.4594 77.9475 34.7372 76.5834 32.5546C75.2534 30.3379 74.5884 27.8314 74.5884 25.035V0.890381H82.5172V24.5235C82.5172 26.024 82.8412 27.3881 83.4892 28.6158C84.1712 29.8094 85.092 30.7472 86.2515 31.4292C87.411 32.1113 88.7239 32.4523 90.1903 32.4523C91.6908 32.4523 93.0038 32.1113 94.1292 31.4292C95.2887 30.7472 96.1924 29.8094 96.8403 28.6158C97.5224 27.3881 97.8634 26.024 97.8634 24.5235V0.890381H105.792V25.035C105.792 27.8314 105.11 30.3379 103.746 32.5546C102.416 34.7372 100.575 36.4594 98.2215 37.7212C95.8684 38.9829 93.1913 39.6138 90.1903 39.6138ZM0.376154 86V47.8904H12.8065C16.9329 47.8904 20.5137 48.7088 23.5488 50.3458C26.584 51.9827 28.9371 54.2335 30.6081 57.0981C32.2791 59.9627 33.1146 63.2365 33.1146 66.9196C33.1146 70.6027 32.2791 73.8936 30.6081 76.7923C28.9371 79.6569 26.584 81.9077 23.5488 83.5446C20.5137 85.1815 16.9329 86 12.8065 86H0.376154ZM8.305 79.0942H13.0112C15.5006 79.0942 17.6491 78.5997 19.4565 77.6108C21.264 76.5877 22.6622 75.1724 23.6512 73.365C24.6742 71.5235 25.1858 69.375 25.1858 66.9196C25.1858 64.4301 24.6742 62.2817 23.6512 60.4742C22.6622 58.6668 21.264 57.2686 19.4565 56.2796C17.6491 55.2906 15.5006 54.7962 13.0112 54.7962H8.305V79.0942ZM38.9454 86L51.8361 47.8904H62.3738L75.2646 86H66.6196L64.0619 78.2246H50.0969L47.5392 86H38.9454ZM52.2965 71.3188H61.8623L56.0307 53.3127H58.1792L52.2965 71.3188ZM84.3404 86V47.8904H90.4277L110.889 74.8485L107.615 75.6158V47.8904H115.544V86H109.406L89.3023 58.8373L92.2692 58.07V86H84.3404Z" fill="#1A8FE3"/>
<path d="M0.376154 39H-1.45077V40.8269H0.376154V39ZM0.376154 0.890381V-0.936542H-1.45077V0.890381H0.376154ZM8.305 0.890381H10.1319V-0.936542H8.305V0.890381ZM8.305 17.3619H6.47808V19.1888H8.305V17.3619ZM23.1396 17.3619V19.1888H24.9665V17.3619H23.1396ZM23.1396 0.890381V-0.936542H21.3127V0.890381H23.1396ZM31.0685 0.890381H32.8954V-0.936542H31.0685V0.890381ZM31.0685 39V40.8269H32.8954V39H31.0685ZM23.1396 39H21.3127V40.8269H23.1396V39ZM23.1396 24.2677H24.9665V22.4408H23.1396V24.2677ZM8.305 24.2677V22.4408H6.47808V24.2677H8.305ZM8.305 39V40.8269H10.1319V39H8.305ZM2.20308 39V0.890381H-1.45077V39H2.20308ZM0.376154 2.7173H8.305V-0.936542H0.376154V2.7173ZM6.47808 0.890381V17.3619H10.1319V0.890381H6.47808ZM8.305 19.1888H23.1396V15.535H8.305V19.1888ZM24.9665 17.3619V0.890381H21.3127V17.3619H24.9665ZM23.1396 2.7173H31.0685V-0.936542H23.1396V2.7173ZM29.2415 0.890381V39H32.8954V0.890381H29.2415ZM31.0685 37.1731H23.1396V40.8269H31.0685V37.1731ZM24.9665 39V24.2677H21.3127V39H24.9665ZM23.1396 22.4408H8.305V26.0946H23.1396V22.4408ZM6.47808 24.2677V39H10.1319V24.2677H6.47808ZM8.305 37.1731H0.376154V40.8269H8.305V37.1731ZM42.9577 39H41.1308V40.8269H42.9577V39ZM42.9577 0.890381V-0.936542H41.1308V0.890381H42.9577ZM50.8866 0.890381H52.7135V-0.936542H50.8866V0.890381ZM50.8866 32.0942H49.0597V33.9212H50.8866V32.0942ZM67 32.0942H68.827V30.2673H67V32.0942ZM67 39V40.8269H68.827V39H67ZM44.7847 39V0.890381H41.1308V39H44.7847ZM42.9577 2.7173H50.8866V-0.936542H42.9577V2.7173ZM49.0597 0.890381V32.0942H52.7135V0.890381H49.0597ZM50.8866 33.9212H67V30.2673H50.8866V33.9212ZM65.1731 32.0942V39H68.827V32.0942H65.1731ZM67 37.1731H42.9577V40.8269H67V37.1731ZM82.1592 37.7212L81.2958 39.3312L82.1592 37.7212ZM76.5834 32.5546L75.0168 33.4946L75.0254 33.5088L75.0342 33.5229L76.5834 32.5546ZM74.5884 0.890381V-0.936542H72.7615V0.890381H74.5884ZM82.5173 0.890381H84.3442V-0.936542H82.5173V0.890381ZM83.4892 28.6158L81.8735 29.4685L81.8878 29.4956L81.903 29.5222L83.4892 28.6158ZM86.2515 31.4292L87.1778 29.8545L86.2515 31.4292ZM94.1292 31.4292L93.2029 29.8545L93.1925 29.8606L93.1823 29.8669L94.1292 31.4292ZM96.8403 28.6158L95.2433 27.7285L95.239 27.7363L95.2347 27.7442L96.8403 28.6158ZM97.8634 0.890381V-0.936542H96.0365V0.890381H97.8634ZM105.792 0.890381H107.619V-0.936542H105.792V0.890381ZM103.746 32.5546L102.19 31.5971L102.186 31.6039L103.746 32.5546ZM98.2215 37.7212L99.0848 39.3312L98.2215 37.7212ZM90.1903 37.7869C87.4527 37.7869 85.0786 37.2136 83.0225 36.1111L81.2958 39.3312C83.9459 40.7523 86.9259 41.4408 90.1903 41.4408V37.7869ZM83.0225 36.1111C80.9392 34.9939 79.3215 33.4885 78.1326 31.5863L75.0342 33.5229C76.5735 35.9858 78.673 37.9248 81.2958 39.3312L83.0225 36.1111ZM78.15 31.6147C77.0042 29.7051 76.4153 27.5283 76.4153 25.035H72.7615C72.7615 28.1345 73.5026 30.9708 75.0168 33.4946L78.15 31.6147ZM76.4153 25.035V0.890381H72.7615V25.035H76.4153ZM74.5884 2.7173H82.5173V-0.936542H74.5884V2.7173ZM80.6903 0.890381V24.5235H84.3442V0.890381H80.6903ZM80.6903 24.5235C80.6903 26.2965 81.0757 27.957 81.8735 29.4685L85.1049 27.763C84.6067 26.8191 84.3442 25.7514 84.3442 24.5235H80.6903ZM81.903 29.5222C82.7394 30.9859 83.885 32.1568 85.3252 33.0039L87.1778 29.8545C86.299 29.3376 85.6031 28.6328 85.0754 27.7094L81.903 29.5222ZM85.3252 33.0039C86.7904 33.8658 88.4285 34.2792 90.1903 34.2792V30.6254C89.0194 30.6254 88.0315 30.3567 87.1778 29.8545L85.3252 33.0039ZM90.1903 34.2792C91.9769 34.2792 93.6269 33.8699 95.0761 32.9916L93.1823 29.8669C92.3807 30.3526 91.4048 30.6254 90.1903 30.6254V34.2792ZM95.0555 33.0039C96.5039 32.1519 97.6412 30.9697 98.4459 29.4874L95.2347 27.7442C94.7435 28.649 94.0734 29.3425 93.2029 29.8545L95.0555 33.0039ZM98.4373 29.503C99.2805 27.9854 99.6903 26.3125 99.6903 24.5235H96.0365C96.0365 25.7354 95.7643 26.7908 95.2433 27.7285L98.4373 29.503ZM99.6903 24.5235V0.890381H96.0365V24.5235H99.6903ZM97.8634 2.7173H105.792V-0.936542H97.8634V2.7173ZM103.965 0.890381V25.035H107.619V0.890381H103.965ZM103.965 25.035C103.965 27.5195 103.364 29.6899 102.19 31.5971L105.302 33.5121C106.857 30.986 107.619 28.1433 107.619 25.035H103.965ZM102.186 31.6039C101.033 33.4959 99.4377 34.9959 97.3581 36.1111L99.0848 39.3312C101.711 37.9228 103.799 35.9785 105.306 33.5053L102.186 31.6039ZM97.3581 36.1111C95.302 37.2136 92.928 37.7869 90.1903 37.7869V41.4408C93.4547 41.4408 96.4348 40.7523 99.0848 39.3312L97.3581 36.1111ZM0.376154 86H-1.45077V87.8269H0.376154V86ZM0.376154 47.8904V46.0635H-1.45077V47.8904H0.376154ZM23.5488 50.3458L22.6816 51.9537H22.6816L23.5488 50.3458ZM30.6081 57.0981L29.03 58.0186H29.03L30.6081 57.0981ZM30.6081 76.7923L32.1862 77.7129L32.1908 77.7047L30.6081 76.7923ZM23.5488 83.5446L24.4161 85.1526H24.4161L23.5488 83.5446ZM8.305 79.0942H6.47808V80.9212H8.305V79.0942ZM19.4565 77.6108L20.3335 79.2135L20.345 79.2071L20.3565 79.2007L19.4565 77.6108ZM23.6512 73.365L22.0541 72.4778L22.0485 72.4881L23.6512 73.365ZM23.6512 60.4742L22.0485 61.3512L22.0548 61.3627L22.0613 61.3742L23.6512 60.4742ZM8.305 54.7962V52.9692H6.47808V54.7962H8.305ZM2.20308 86V47.8904H-1.45077V86H2.20308ZM0.376154 49.7173H12.8065V46.0635H0.376154V49.7173ZM12.8065 49.7173C16.6895 49.7173 19.9607 50.4863 22.6816 51.9537L24.4161 48.7378C21.0668 46.9314 17.1764 46.0635 12.8065 46.0635V49.7173ZM22.6816 51.9537C25.4335 53.4379 27.5352 55.456 29.03 58.0186L32.1861 56.1775C30.3389 53.0109 27.7345 50.5275 24.4161 48.7378L22.6816 51.9537ZM29.03 58.0186C30.5205 60.5738 31.2877 63.5233 31.2877 66.9196H34.9415C34.9415 62.9497 34.0377 59.3516 32.1861 56.1775L29.03 58.0186ZM31.2877 66.9196C31.2877 70.3156 30.5206 73.286 29.0253 75.8799L32.1908 77.7047C34.0376 74.5012 34.9415 70.8898 34.9415 66.9196H31.2877ZM29.03 75.8718C27.5352 78.4344 25.4335 80.4525 22.6816 81.9366L24.4161 85.1526C27.7345 83.3629 30.3389 80.8795 32.1861 77.7128L29.03 75.8718ZM22.6816 81.9366C19.9607 83.4041 16.6895 84.1731 12.8065 84.1731V87.8269C17.1764 87.8269 21.0668 86.959 24.4161 85.1526L22.6816 81.9366ZM12.8065 84.1731H0.376154V87.8269H12.8065V84.1731ZM8.305 80.9212H13.0112V77.2673H8.305V80.9212ZM13.0112 80.9212C15.7437 80.9212 18.2065 80.3773 20.3335 79.2135L18.5796 76.0081C17.0917 76.8222 15.2576 77.2673 13.0112 77.2673V80.9212ZM20.3565 79.2007C22.4575 78.0114 24.1002 76.3504 25.2538 74.2419L22.0485 72.4881C21.2242 73.9945 20.0705 75.164 18.5566 76.0209L20.3565 79.2007ZM25.2482 74.2522C26.4453 72.0974 27.0127 69.6337 27.0127 66.9196H23.3588C23.3588 69.1163 22.9032 70.9495 22.0541 72.4778L25.2482 74.2522ZM27.0127 66.9196C27.0127 64.1774 26.4477 61.706 25.241 59.5743L22.0613 61.3742C22.9008 62.8573 23.3588 64.6829 23.3588 66.9196H27.0127ZM25.2538 59.5973C24.0973 57.4836 22.4472 55.8335 20.3335 54.6769L18.5796 57.8823C20.0807 58.7037 21.2271 59.85 22.0485 61.3512L25.2538 59.5973ZM20.3335 54.6769C18.2065 53.5131 15.7437 52.9692 13.0112 52.9692V56.6231C15.2576 56.6231 17.0917 57.0682 18.5796 57.8823L20.3335 54.6769ZM13.0112 52.9692H8.305V56.6231H13.0112V52.9692ZM6.47808 54.7962V79.0942H10.1319V54.7962H6.47808ZM38.9454 86L37.2148 85.4146L36.3988 87.8269H38.9454V86ZM51.8361 47.8904V46.0635H50.5255L50.1055 47.305L51.8361 47.8904ZM62.3738 47.8904L64.1044 47.305L63.6845 46.0635H62.3738V47.8904ZM75.2646 86V87.8269H77.8112L76.9952 85.4146L75.2646 86ZM66.6196 86L64.8841 86.5709L65.2973 87.8269H66.6196V86ZM64.0619 78.2246L65.7973 77.6537L65.3842 76.3977H64.0619V78.2246ZM50.0969 78.2246V76.3977H48.7746L48.3615 77.6537L50.0969 78.2246ZM47.5392 86V87.8269H48.8615L49.2746 86.5709L47.5392 86ZM52.2965 71.3188L50.5599 70.7515L49.7777 73.1458H52.2965V71.3188ZM61.8623 71.3188V73.1458H64.3743L63.6003 70.756L61.8623 71.3188ZM56.0307 53.3127V51.4858H53.5187L54.2927 53.8756L56.0307 53.3127ZM58.1792 53.3127L59.9158 53.88L60.698 51.4858H58.1792V53.3127ZM40.676 86.5854L53.5667 48.4758L50.1055 47.305L37.2148 85.4146L40.676 86.5854ZM51.8361 49.7173H62.3738V46.0635H51.8361V49.7173ZM60.6432 48.4758L73.534 86.5854L76.9952 85.4146L64.1044 47.305L60.6432 48.4758ZM75.2646 84.1731H66.6196V87.8269H75.2646V84.1731ZM68.355 85.4291L65.7973 77.6537L62.3265 78.7955L64.8841 86.5709L68.355 85.4291ZM64.0619 76.3977H50.0969V80.0515H64.0619V76.3977ZM48.3615 77.6537L45.8038 85.4291L49.2746 86.5709L51.8323 78.7955L48.3615 77.6537ZM47.5392 84.1731H38.9454V87.8269H47.5392V84.1731ZM52.2965 73.1458H61.8623V69.4919H52.2965V73.1458ZM63.6003 70.756L57.7688 52.7498L54.2927 53.8756L60.1242 71.8817L63.6003 70.756ZM56.0307 55.1396H58.1792V51.4858H56.0307V55.1396ZM56.4426 52.7453L50.5599 70.7515L54.0331 71.8862L59.9158 53.88L56.4426 52.7453ZM84.3404 86H82.5135V87.8269H84.3404V86ZM84.3404 47.8904V46.0635H82.5135V47.8904H84.3404ZM90.4277 47.8904L91.8829 46.7859L91.3346 46.0635H90.4277V47.8904ZM110.889 74.8485L111.306 76.6272L114.046 75.9851L112.344 73.7439L110.889 74.8485ZM107.615 75.6158H105.788V77.9204L108.032 77.3945L107.615 75.6158ZM107.615 47.8904V46.0635H105.788V47.8904H107.615ZM115.544 47.8904H117.371V46.0635H115.544V47.8904ZM115.544 86V87.8269H117.371V86H115.544ZM109.406 86L107.937 87.0868L108.485 87.8269H109.406V86ZM89.3023 58.8373L88.8449 57.0686L86.2224 57.7468L87.8338 59.9241L89.3023 58.8373ZM92.2692 58.07H94.0962V55.7105L91.8118 56.3013L92.2692 58.07ZM92.2692 86V87.8269H94.0962V86H92.2692ZM86.1673 86V47.8904H82.5135V86H86.1673ZM84.3404 49.7173H90.4277V46.0635H84.3404V49.7173ZM88.9725 48.9949L109.434 75.953L112.344 73.7439L91.8829 46.7859L88.9725 48.9949ZM110.472 73.0697L107.199 73.837L108.032 77.3945L111.306 76.6272L110.472 73.0697ZM109.442 75.6158V47.8904H105.788V75.6158H109.442ZM107.615 49.7173H115.544V46.0635H107.615V49.7173ZM113.717 47.8904V86H117.371V47.8904H113.717ZM115.544 84.1731H109.406V87.8269H115.544V84.1731ZM110.874 84.9132L90.7708 57.7505L87.8338 59.9241L107.937 87.0868L110.874 84.9132ZM89.7598 60.606L92.7267 59.8387L91.8118 56.3013L88.8449 57.0686L89.7598 60.606ZM90.4423 58.07V86H94.0962V58.07H90.4423ZM92.2692 84.1731H84.3404V87.8269H92.2692V84.1731Z" fill="#1A8FE3"/>
</svg>
