<svg width="30" height="25" viewBox="0 0 30 25" fill="none" xmlns="http://www.w3.org/2000/svg">
<path d="M29.9998 0.363185C28.707 1.27508 27.2757 1.97253 25.7608 2.42868C24.9478 1.49382 23.8672 0.831219 22.6653 0.530485C21.4634 0.229751 20.1981 0.305399 19.0406 0.747197C17.8831 1.18899 16.8892 1.97563 16.1933 3.0007C15.4975 4.02578 15.1332 5.23984 15.1498 6.47868V7.82868C12.7774 7.8902 10.4265 7.36403 8.30667 6.29704C6.18681 5.23004 4.36373 3.65534 2.9998 1.71318C2.9998 1.71318 -2.4002 13.8632 9.7498 19.2632C6.96952 21.1504 3.65747 22.0967 0.299805 21.9632C12.4498 28.7132 27.2998 21.9632 27.2998 6.43818C27.2986 6.06215 27.2624 5.68704 27.1918 5.31768C28.5696 3.9589 29.5419 2.24335 29.9998 0.363185Z" fill="#1A8FE3" fill-opacity="0.9"/>
</svg>
